<?xml version="1.0" encoding="UTF-8" standalone="no"?>
<!-- Created with Inkscape (http://www.inkscape.org/) -->

<svg
   width="120mm"
   height="120mm"
   viewBox="0 0 120 120"
   version="1.1"
   id="svg1"
   sodipodi:docname="Amongus-deadbody.svg"
   inkscape:version="1.4.3 (0d15f75042, 2025-12-25)"
   xmlns:inkscape="http://www.inkscape.org/namespaces/inkscape"
   xmlns:sodipodi="http://sodipodi.sourceforge.net/DTD/sodipodi-0.dtd"
   xmlns="http://www.w3.org/2000/svg"
   xmlns:svg="http://www.w3.org/2000/svg">
  <sodipodi:namedview
     id="namedview1"
     pagecolor="#ffffff"
     bordercolor="#666666"
     borderopacity="1.0"
     inkscape:showpageshadow="2"
     inkscape:pageopacity="0.0"
     inkscape:pagecheckerboard="0"
     inkscape:deskcolor="#d1d1d1"
     inkscape:document-units="mm"
     inkscape:zoom="2.2148275"
     inkscape:cx="225.52547"
     inkscape:cy="206.11086"
     inkscape:window-width="1889"
     inkscape:window-height="1058"
     inkscape:window-x="31"
     inkscape:window-y="232"
     inkscape:window-maximized="1"
     inkscape:current-layer="layer1" />
  <defs
     id="defs1" />
  <g
     inkscape:label="Layer 1"
     inkscape:groupmode="layer"
     id="layer1"
     transform="translate(-32.103945,-30.529297)">
    <path
       style="fill:#aa0000;stroke:none;stroke-width:6;stroke-linecap:butt;stroke-linejoin:miter;stroke-dasharray:none;stroke-opacity:1"
       d="M 68.620265,82.583399 C 68.620265,82.583399 100.58686,67.386162 111.80296,67.581522 122.34752,67.765185 130.39124,85.410723 125.82514,94.274359 118.93593,107.64759 85.616955,118.43307 85.616955,118.43307 Z"
       id="path11-7"
       sodipodi:nodetypes="csscc" />
    <path
       style="fill:none;stroke:#000000;stroke-width:6;stroke-linecap:butt;stroke-linejoin:miter;stroke-dasharray:none;stroke-opacity:1"
       d="M 62.404203,87.034394 C 62.404203,87.034394 101.81863,68.968532 113.0224,68.407725 118.94114,68.111461 123.21771,71.206116 125.75381,75.57702 129.2606,81.620908 129.43961,90.104997 126.03093,95.438439 117.92969,108.11418 78.558235,122.976 78.558235,122.976 Z"
       id="path11-1-6"
       sodipodi:nodetypes="cssscc" />
    <path
       style="fill:#aa0000;stroke:none;stroke-width:6;stroke-linecap:butt;stroke-linejoin:miter;stroke-dasharray:none;stroke-opacity:1"
       d="M 91.976428,90.503698 C 91.976428,90.503698 122.15112,78.651342 133.36722,78.846702 143.91178,79.030365 151.9555,96.675903 147.3894,105.53954 140.50019,118.91277 107.18122,129.69825 107.18122,129.69825 Z"
       id="path11"
       sodipodi:nodetypes="csscc" />
    <path
       id="path14"
       style="fill:#ff0000;stroke:none;stroke-width:6;stroke-linecap:butt;stroke-linejoin:miter;stroke-dasharray:none;stroke-opacity:1"
       d="M 133.27244,79.535426 C 122.05634,79.340066 93.740033,92.206294 93.740033,92.206294 L 102.74717,114.1974 C 111.76449,108.694 123.06675,102.63665 132.86054,92.193094 135.50561,89.372534 136.36973,86.063184 136.87277,81.195944 136.35037,81.112814 133.79816,79.544586 133.27244,79.535426 Z"
       sodipodi:nodetypes="cccscc" />
    <path
       style="fill:none;stroke:#000000;stroke-width:6;stroke-linecap:butt;stroke-linejoin:miter;stroke-dasharray:none;stroke-opacity:1"
       d="M 92.689049,90.654133 C 92.689049,90.654133 123.37056,79.477545 134.58666,79.672905 145.13122,79.856568 152.16129,97.83999 147.59519,106.70362 140.70599,120.07685 100.12249,134.24118 100.12249,134.24118 Z"
       id="path11-1"
       sodipodi:nodetypes="csscc" />
    <path
       id="path10"
       style="fill:#aa0000;stroke-width:6;stroke-linecap:round;stroke-linejoin:round;stroke-miterlimit:10"
       d="M 109.09953,114.07109 C 109.09953,130.07274 93.87704,141.49166 75.393882,141.49166 56.910723,141.49166 43.719062,128.87814 43.719061,112.87649 43.71906,96.874839 57.149641,85.097537 75.632802,85.097537 94.115962,85.097538 109.09953,98.06944 109.09953,114.07109 Z"
       sodipodi:nodetypes="sssss" />
    <path
       id="path10-1"
       style="fill:#550000;stroke:#000000;stroke-width:4;stroke-linecap:round;stroke-linejoin:round;stroke-miterlimit:10"
       d="M 88.581538,113.6372 C 91.104307,124.94485 86.947437,134.70141 71.60038,128.55383 62.159496,124.77209 54.069223,120.90398 53.663541,111.48692 53.219198,101.17244 59.186388,94.444867 70.16686,96.570285 80.101515,98.493271 86.981037,106.46337 88.581538,113.6372 Z"
       sodipodi:nodetypes="sssss" />
    <path
       style="fill:none;stroke:#000000;stroke-width:0.264583px;stroke-linecap:butt;stroke-linejoin:miter;stroke-opacity:1"
       d="M 93.327965,94.051482 80.319432,86.111209 62.580525,86.280151"
       id="path17" />
    <path
       style="fill:#aa0000;stroke:none;stroke-width:0.264583px;stroke-linecap:butt;stroke-linejoin:miter;stroke-opacity:1"
       d="M 52.612947,91.51735 63.594175,84.928614 C 63.594175,84.928614 88.428646,86.955918 92.652195,90.672641 96.875744,94.389365 103.80238,95.571957 103.80238,95.571957 L 118.33138,88.307454 123.90647,57.897898 86.739228,50.633393 70.182914,56.884246 54.302368,65.162403 Z"
       id="path18" />
    <path
       style="baseline-shift:baseline;display:inline;overflow:visible;opacity:1;vector-effect:none;stroke-linecap:round;stroke-linejoin:round;stroke-miterlimit:10;enable-background:accumulate;stop-color:#000000;stop-opacity:1"
       d="M 75.255536,82.226582 C 64.173456,82.226582 57.011834,85.658163 49.570784,91.348641 42.129733,97.039118 40.461278,103.82431 40.461278,112.88518 40.461278,121.94605 41.590404,128.8712 49.031455,134.56167 56.472505,140.25215 64.173456,146.1719 75.255536,146.1719 86.337616,146.1719 92.244713,144.07487 99.685763,138.38439 107.12682,132.69392 109.93034,128.27743 109.93034,119.21656 109.93034,110.15569 105.73283,98.5391 98.291773,92.848623 90.850728,87.158145 86.337616,82.226582 75.255536,82.226582 Z M 75.255536,87.629282 C 85.097726,87.629282 85.405017,92.9023 91.676268,97.698185 97.947521,102.49407 102.13201,108.83691 102.13201,115.77769 102.13201,122.71847 99.923283,130.25445 93.65203,135.05034 87.380779,139.84622 85.097726,140.1719 75.255536,140.1719 65.413346,140.1719 59.188112,135.4262 52.916859,130.63032 46.645606,125.83443 46.16087,118.01708 46.16087,111.0763 46.16087,104.13552 47.811221,99.379618 54.082474,94.583735 60.353727,89.78785 65.413346,87.629282 75.255536,87.629282 Z"
       id="path10-0"
       sodipodi:nodetypes="ssssssssssssssssss" />
    <path
       style="fill:#ff0000;stroke:none;stroke-width:0.264583px;stroke-linecap:butt;stroke-linejoin:miter;stroke-opacity:1"
       d="M 57.681207,63.472983 85.218748,50.802334 123.56859,59.418375 C 113.36369,62.736481 102.53291,62.791272 96.537861,71.582197 Z"
       id="path19"
       sodipodi:nodetypes="ccccc" />
    <path
       style="fill:none;stroke:#000000;stroke-width:6;stroke-linecap:round;stroke-linejoin:round;stroke-dasharray:none;stroke-opacity:1"
       d="M 52.781889,64.486633 81.670969,52.15387 C 97.806796,50.63716 111.35823,53.643154 123.90647,58.404722 115.35749,71.873443 120.31517,80.271282 120.97648,89.580521 113.66975,91.192532 106.42342,95.136548 100.00718,98.97481"
       id="path16"
       sodipodi:nodetypes="ccccc" />
    <path
       style="baseline-shift:baseline;display:inline;overflow:visible;opacity:1;vector-effect:none;stroke-linejoin:round;enable-background:accumulate;stop-color:#000000;stop-opacity:1"
       d="M 53.179298,61.681641 C 51.29936,61.430601 49.661056,62.965094 49.788673,64.857422 49.941433,67.12461 49.504412,69.712792 49.854512,72.248862 50.169204,74.528446 51.280446,76.742983 51.301163,79.033942 51.321641,81.298434 50.201123,83.154452 49.832257,85.285709 49.511713,87.137769 49.963527,89.285426 49.659767,90.990234 L 55.566017,92.042969 C 56.140242,88.82022 56.141386,84.457487 56.215539,81.653602 56.279536,79.233686 56.458872,78.432075 56.383865,75.096054 56.351119,73.639667 56.086287,71.583471 56.080159,69.843713 56.078093,69.257244 56.004628,68.679356 55.966407,68.107422 L 62.492041,69.437121 68.440774,68.594036 73.76287,71.21769 81.072701,72.552951 86.362004,71.727477 94.222267,73.21875 96.045671,78.049649 94.741162,83.330617 96.079688,99.835937 102.06407,99.417969 99.608883,85.132569 100.75348,70.956675 C 100.65371,69.536202 98.852454,67.784229 97.441017,67.595703 L 86.458021,65.435681 75.590521,65.61004 70.873873,63.392495 Z"
       id="path15"
       sodipodi:nodetypes="ccsssccssscccccccccccccccccc" />
    <path
       style="fill:#f4eed7;stroke:none;stroke-width:0.264583px;stroke-linecap:butt;stroke-linejoin:miter;stroke-opacity:1"
       d="M 68.242359,110.96088 54.084588,118.57133 43.452647,116.30159 36.165586,121.31891 37.718566,133.26491 44.169407,135.05681 47.633748,143.1801 58.385149,147.00282 66.866811,140.91035 65.19437,131.47301 63.88031,125.97785 78.454432,118.21295 C 74.915789,116.84897 69.937402,114.44804 68.242359,110.96088 Z"
       id="path23"
       sodipodi:nodetypes="ccccccccccccc" />
    <path
       style="fill:#decd87;stroke:none;stroke-width:0.264583px;stroke-linecap:butt;stroke-linejoin:miter;stroke-opacity:1"
       d="M 45.961307,134.57897 C 45.961307,134.57897 49.111719,139.45965 54.084588,139.59629 59.918524,139.75659 63.163549,132.66761 63.163549,132.66761 L 63.88031,139.35737 56.712709,146.76389 47.992127,143.29955 Z"
       id="path24"
       sodipodi:nodetypes="csccccc" />
    <path
       style="fill:#decd87;stroke:none;stroke-width:0.264583px;stroke-linecap:butt;stroke-linejoin:miter;stroke-opacity:1"
       d="M 35.984129,123.95902 C 35.984129,123.95902 37.820481,127.6451 42.79335,127.78174 44.066094,127.81671 47.654146,126.22543 47.549175,127.35883 L 46.735531,136.14394 38.014949,132.6796 Z"
       id="path24-6"
       sodipodi:nodetypes="cssccc" />
    <path
       style="fill:#decd87;stroke:none;stroke-width:0.264583px;stroke-linecap:butt;stroke-linejoin:miter;stroke-opacity:1"
       d="M 58.26569,125.0819 62.685709,128.48651 77.976593,118.5116 C 76.278065,117.10544 74.933869,116.81835 73.300156,115.73328 68.135895,120.90253 62.499239,119.62828 58.26569,125.0819 Z"
       id="path25"
       sodipodi:nodetypes="ccccc" />
    <path
       style="fill:none;stroke:#000000;stroke-width:6;stroke-linecap:round;stroke-linejoin:miter;stroke-dasharray:none;stroke-opacity:1"
       d="M 76.995702,120.72161 C 71.954376,122.5659 69.891192,124.69507 64.213479,130.03949"
       id="path21"
       sodipodi:nodetypes="cc" />
    <path
       style="fill:none;stroke:#000000;stroke-width:6;stroke-linecap:round;stroke-linejoin:miter;stroke-dasharray:none;stroke-opacity:1"
       d="M 65.97215,111.90207 C 63.944846,113.7977 60.533857,117.46804 53.568804,118.21895 49.446628,118.66337 46.926547,114.39983 42.889868,115.34591 39.679487,116.09833 36.42874,118.84341 35.602806,122.03567 34.65657,125.6929 36.344708,130.29823 39.186607,132.78707 41.413266,134.7371 44.681767,134.34005 44.681767,134.34005"
       id="path20"
       sodipodi:nodetypes="cssssc" />
    <path
       style="fill:none;stroke:#000000;stroke-width:6;stroke-linecap:round;stroke-linejoin:miter;stroke-dasharray:none;stroke-opacity:1"
       d="M 47.548808,129.56165 C 47.548808,129.56165 44.283956,136.24936 46.286716,140.70393 47.913435,144.32211 53.274146,145.92837 57.231073,145.64528 61.991994,145.30467 63.437525,142.70641 65.228892,138.28223 67.219452,133.3661 60.211569,127.41137 60.211569,127.41137"
       id="path22"
       sodipodi:nodetypes="csssc" />
  </g>
</svg>
