<?xml version="1.0" encoding="UTF-8" standalone="no"?>
<!-- Created with Inkscape (http://www.inkscape.org/) -->

<svg
   viewBox="0 0 120 120"
   version="1.1"
   id="svg1"
   sodipodi:docname="Amongus-impostor.svg"
   inkscape:version="1.4.3 (0d15f75042, 2025-12-25)"
   xmlns:inkscape="http://www.inkscape.org/namespaces/inkscape"
   xmlns:sodipodi="http://sodipodi.sourceforge.net/DTD/sodipodi-0.dtd"
   xmlns="http://www.w3.org/2000/svg"
   xmlns:svg="http://www.w3.org/2000/svg">
  <sodipodi:namedview
     id="namedview1"
     pagecolor="#ffffff"
     bordercolor="#666666"
     borderopacity="1.0"
     inkscape:showpageshadow="2"
     inkscape:pageopacity="0.0"
     inkscape:pagecheckerboard="0"
     inkscape:deskcolor="#d1d1d1"
     inkscape:document-units="mm"
     inkscape:zoom="2.2148275"
     inkscape:cx="241.32805"
     inkscape:cy="146.96404"
     inkscape:window-width="1889"
     inkscape:window-height="1058"
     inkscape:window-x="31"
     inkscape:window-y="232"
     inkscape:window-maximized="1"
     inkscape:current-layer="layer1" />
  <defs
     id="defs1" />
  <g
     inkscape:label="Layer 1"
     inkscape:groupmode="layer"
     id="layer1"
     transform="translate(-32.103945,-30.529297)">
    <path
       style="fill:#ff0000;stroke:none;stroke-width:0.264583px;stroke-linecap:butt;stroke-linejoin:miter;stroke-opacity:1"
       d="M 70.331151,86.556045 C 70.331151,86.556045 85.000952,88.072657 91.236653,85.241985 96.074206,83.045997 98.298743,77.94922 103.30212,76.163024 108.40293,74.342045 114.99653,79.336587 119.54868,76.401945 126.92291,71.647991 121.7785,55.165304 130.06116,52.27102 135.67771,50.308376 145.82988,60.633221 145.82988,60.633221 145.82988,60.633221 135.81346,54.876128 131.71911,57.131405 126.33477,60.097239 129.6545,76.117158 123.35939,80.606028 118.99127,83.720816 111.21928,79.369622 106.16916,81.180344 100.32655,83.275214 96.37792,89.088868 90.639353,91.453906 83.505795,94.393862 68.30033,96.471226 68.30033,96.471226 Z"
       id="path10"
       sodipodi:nodetypes="csssscsssscc" />
    <path
       style="fill:#a80000;fill-opacity:1;stroke:none;stroke-width:6;stroke-linecap:butt;stroke-linejoin:miter;stroke-dasharray:none;stroke-opacity:1"
       d="M 37.494921,81.85104 C 39.010625,86.640823 44.00049,113.65609 45.099369,122.83753 46.198248,132.01897 77.318729,134.54376 69.363467,98.438399 61.408204,62.333032 35.979217,77.061257 37.494921,81.85104 Z"
       id="path4"
       sodipodi:nodetypes="zzzz" />
    <path
       id="path4-9"
       style="fill:#ff0000;stroke:none;stroke-width:6;stroke-linecap:butt;stroke-linejoin:miter;stroke-dasharray:none;stroke-opacity:1"
       d="M 52.385723,73.172031 C 47.833793,73.265724 43.341483,75.63453 39.869173,81.383417 39.153223,82.56876 38.567703,84.186533 38.108043,86.098891 41.210665,90.481881 44.872263,86.847067 48.475767,86.684959 54.536152,86.412325 60.650649,86.132843 65.259353,78.610976 61.549093,75.259496 56.937643,73.078339 52.385723,73.172031 Z"
       sodipodi:nodetypes="sscscs" />
    <path
       style="fill:none;stroke:#000000;stroke-width:6;stroke-linecap:butt;stroke-linejoin:miter;stroke-dasharray:none;stroke-opacity:1"
       d="M 37.92399,82.355877 C 34.295838,88.979844 43.71076,94.386013 43.51267,100.79211 43.23006,109.93159 41.906981,117.864 44.572758,122.38669 58.593439,146.17381 68.310457,117.60743 64.655755,97.270796 62.154398,83.351977 47.708351,64.492434 37.92399,82.355877 Z"
       id="path4-5"
       sodipodi:nodetypes="ssszs" />
    <path
       style="fill:#ff0000;fill-opacity:1;stroke:none;stroke-width:6;stroke-linecap:butt;stroke-linejoin:miter;stroke-dasharray:none;stroke-opacity:1"
       d="M 95.012181,115.30715 H 77.691105 C 77.691105,115.30715 79.204948,132.3526 77.027343,140.47953 75.636131,145.6716 59.752209,151.70562 59.752209,136.90773 59.752209,116.77809 58.205685,117.42939 58.144775,98.135444 58.10757,86.350395 33.09889,48.717754 66.813813,39.469503 87.567394,33.776643 106.54618,66.594711 106.54618,66.594711 L 97.215635,77.368663 88.008084,76.637239 85.876041,84.554891 74.291578,80.865082 69.876625,93.000258 77.822445,97.541752 83.464874,93.537278 88.78837,96.734307 95.134409,90.875905 102.27167,96.228225 108.72334,91.838905 115.89888,96.778934 C 115.89888,96.778934 111.4606,127.53084 109.47617,138.91806 107.77108,148.70236 92.220106,141.63565 92.220106,138.28328 92.220106,130.57176 95.012181,115.30715 95.012181,115.30715 Z"
       id="path1"
       sodipodi:nodetypes="ccsssscccccccccccccssc" />
    <path
       id="path1-2"
       style="fill:#b50000;fill-opacity:1;stroke:none;stroke-width:6;stroke-linecap:butt;stroke-linejoin:miter;stroke-dasharray:none;stroke-opacity:1"
       d="M 49.370536,50.478266 C 33.202785,70.864765 58.552478,90.162927 58.575478,97.448117 58.636388,116.74206 60.183138,116.09083 60.183138,136.22047 60.183138,151.01836 76.066838,144.98441 77.458048,139.79234 79.635648,131.66541 78.122088,122.02806 78.122088,122.02806 H 95.442968 C 95.442968,122.02806 92.650903,129.88457 92.650903,137.59609 92.650903,140.94846 108.2021,148.01498 109.90719,138.23068 111.89162,126.84346 116.56898,119.99376 116.56898,100.75055 116.56898,96.702228 114.40127,93.595645 112.56944,100.3998 111.44181,104.58825 109.76378,108.03089 107.03812,109.51405 99.407971,113.66595 81.101587,113.43501 73.350247,109.51405 67.634457,106.62277 68.131687,94.763967 65.943797,88.743757 63.290527,81.442997 53.651871,59.669065 49.370536,50.478266 Z"
       sodipodi:nodetypes="csssccsssssssc" />
    <path
       id="path1-6-5"
       style="baseline-shift:baseline;display:inline;overflow:visible;vector-effect:none;enable-background:accumulate;stop-color:#000000"
       d="M 73.407367,34.030375 C 68.748543,34.198019 63.709461,35.656618 58.416034,38.712777 50.421087,43.328662 45.544369,48.815303 43.135313,54.670976 40.726257,60.526652 40.835694,66.579301 42.136924,72.125724 44.739389,83.218571 51.178989,91.8194 53.919668,96.531987 L 54.538751,97.965491 C 54.600168,117.41996 56.145888,116.75303 56.145888,136.72902 56.145888,140.96518 57.337645,144.3047 59.583405,146.43643 61.829166,148.56815 64.816448,149.20075 67.483698,149.00269 70.150948,148.80464 72.652748,147.86731 74.738035,146.54961 76.823322,145.2319 78.638535,143.61331 79.318117,141.07707 80.587614,136.33925 80.676662,138.99015 80.56817,133.60208 80.496038,130.01975 80.300892,127.9455 80.178013,126.25265 83.856982,126.05578 87.259487,126.14019 90.870901,125.5359 90.133134,129.73594 88.61264,131.40539 88.61264,138.10413 88.61264,139.68288 89.331522,140.66755 90.017206,141.45948 90.702893,142.2514 91.505842,142.89541 92.415509,143.49656 94.234827,144.69885 96.484223,145.69777 98.915371,146.26849 101.34654,146.83921 103.99625,147.02524 106.5423,146.03387 109.08835,145.04251 111.25652,142.5205 111.82569,139.25444 113.73893,128.27573 118.29248,116.3047 118.29248,96.6002 L 108.98607,85.169889 102.59792,95.622042 95.869045,85.638595 88.993774,96.187422 83.591838,89.489997 78.340876,95.63359 73.510305,91.28488 75.958555,83.318623 87.098979,86.014642 88.994013,79.081889 98.96498,82.609322 100.14475,74.004163 108.40213,77.207068 109.28063,64.550993 109.2858,64.547892 C 106.29947,59.375422 101.10237,49.00584 92.875429,41.717761 88.761962,38.073723 83.790182,35.160035 77.934739,34.281523 76.470876,34.061894 74.960308,33.974494 73.407367,34.030375 Z M 73.598053,40.014506 C 74.791315,39.97606 75.937625,40.049559 77.043838,40.215527 81.468697,40.879404 85.385491,43.099287 88.896344,46.209477 95.273872,51.859198 99.98084,60.311674 103.16989,65.935921 103.16995,65.93603 102.98024,68.668054 102.98024,68.668054 L 95.230324,65.659969 94.021613,74.496122 84.400494,71.093746 82.654348,80.320056 72.066364,77.94139 69.144578,92.214937 78.021556,103.4959 83.492023,96.976404 88.85552,104.65604 95.655224,93.429733 103.43189,103.47833 109.3261,92.915155 112.27373,98.743221 C 111.96197,116.23672 107.88959,126.88359 105.91339,138.2235 105.63001,139.84958 105.21397,140.11333 104.36465,140.44403 103.51533,140.77473 101.95813,140.81843 100.28841,140.42646 98.618694,140.03449 96.874115,139.25099 95.724351,138.49118 95.195334,138.14158 94.840184,137.81605 94.645864,137.60803 94.747294,130.4446 95.92363,124.61213 97.118064,123.37583 98.989145,121.43918 103.79724,118.10225 103.79724,118.10225 94.361937,119.61709 84.68997,120.69529 73.806309,119.53627 L 74.097247,122.8017 C 74.097247,122.8017 74.466059,128.55663 74.570087,133.723 74.674116,138.88938 74.431231,136.13508 73.523122,139.52419 73.507099,139.58399 72.816773,140.66554 71.532546,141.47705 70.248319,142.28856 68.516396,142.90883 67.038764,143.01855 65.561132,143.12827 64.490369,142.8213 63.714419,142.08476 62.938469,141.34821 62.146039,139.89179 62.146039,136.72902 62.146039,116.44572 60.598789,117.07928 60.538385,97.945854 L 59.942039,94.589986 C 56.757979,89.115026 50.179555,80.138098 47.977911,70.753715 46.877091,66.061519 46.847776,61.418138 48.684328,56.954041 50.52088,52.489944 54.273051,48.033036 61.416368,43.908842 66.017254,41.252518 70.018269,40.129845 73.598053,40.014506 Z"
       sodipodi:nodetypes="ssssccssssssccssssssccccccccccccccccsssssssccccccccccccccsssscscccssssssccssss" />
    <g
       id="g8"
       transform="translate(-1.6724403,9.7957216)">
      <g
         id="g9"
         transform="rotate(-30,74.073582,125.33113)">
        <path
           style="fill:#5fdddd;fill-opacity:1;stroke:none;stroke-width:6;stroke-linecap:butt;stroke-linejoin:miter;stroke-dasharray:none;stroke-opacity:1"
           d="M 121.61307,50.252577 C 131.29851,49.370475 144.16221,50.868144 144.25129,61.064864 144.34037,71.261584 133.29519,71.942327 123.97825,72.215036 114.66136,72.487745 100.84293,74.740788 99.650649,62.078515 98.32942,48.04677 111.92766,51.134679 121.61307,50.252577 Z"
           id="path5"
           sodipodi:nodetypes="zzzsz" />
        <path
           id="path5-1"
           style="fill:#429191;fill-opacity:1;stroke:none;stroke-width:6;stroke-linecap:butt;stroke-linejoin:miter;stroke-dasharray:none;stroke-opacity:1"
           d="M 104.87867,51.76004 C 101.36418,53.12274 99.121444,55.987616 99.695525,62.084474 100.8878,74.746742 114.7063,72.493512 124.02319,72.220802 133.34014,71.948092 144.38546,71.267302 144.29638,61.070583 144.29367,60.76 144.27894,60.457764 144.25297,60.163144 140.21177,62.159186 134.46652,62.439041 129.2606,62.59142 119.94368,62.86413 106.12521,65.116841 104.93293,52.454571 104.91067,52.2182 104.89255,51.986796 104.87867,51.76004 Z" />
        <path
           style="fill:none;stroke:#000000;stroke-width:6;stroke-linecap:butt;stroke-linejoin:miter;stroke-dasharray:none;stroke-opacity:1"
           d="M 121.72584,50.099166 C 131.41129,49.217064 144.27499,50.714733 144.36407,60.911453 144.45315,71.108173 133.40797,71.788916 124.09103,72.061625 114.77413,72.334334 100.95571,74.587377 99.763431,61.925104 98.442202,47.893359 112.04044,50.981268 121.72584,50.099166 Z"
           id="path5-3"
           sodipodi:nodetypes="zzzsz" />
        <path
           style="fill:#e6e6e6;stroke:none;stroke-width:0.264583px;stroke-linecap:butt;stroke-linejoin:miter;stroke-opacity:1"
           d="M 123.64036,57.010255 C 123.74371,54.836773 129.25916,55.002633 131.4117,55.320837 133.47968,55.62654 136.91249,56.103717 136.98678,58.19285 137.04067,59.708191 132.75775,58.129835 131.24276,58.192851 128.22324,58.318448 123.55431,58.819907 123.64036,57.010255 Z"
           id="path6"
           sodipodi:nodetypes="sssss" />
      </g>
    </g>
  </g>
</svg>
